# Blender v2.83.4 OBJ File: 'copcar.blend'
# www.blender.org
mtllib copcar.mtl
o Cube_Cube.001
v 17.047821 11.852697 35.789410
v 17.040823 15.768784 37.036716
v 16.887703 15.768779 48.699009
v 16.942123 11.852695 48.592449
v -8.710372 11.852695 48.448490
v -8.764791 16.008957 48.555050
v -17.324690 15.768779 48.507008
v -17.270267 11.852695 48.400448
v -16.947697 11.852703 -17.666563
v -16.947697 14.114238 -17.666563
v -16.850662 14.114241 -34.956745
v -16.785215 14.196387 -46.618542
v 8.880877 14.163277 -46.474506
v 8.880877 14.267863 -46.474506
v 17.361731 14.114241 -34.764744
v 17.427179 14.163277 -46.426537
v -8.387799 3.552022 -17.618523
v -16.947697 0.104443 -17.666565
v -16.850662 0.104446 -34.956749
v -8.225317 0.104448 -46.570511
v 8.718396 14.267859 -17.522520
v 17.264696 14.114238 -17.474560
v 8.494523 16.008963 36.988758
v 16.570412 15.663561 31.718439
v 8.024113 15.768785 31.670477
v -8.583671 3.552016 17.283234
v -17.143568 0.104437 31.855476
v -17.044729 0.104440 14.243898
v -8.484834 0.104440 -0.328343
v -17.164568 11.852697 35.597408
v -17.171568 15.768784 36.844715
v -17.641979 15.768785 31.526438
v -17.492668 11.852698 27.205801
v 17.200762 11.852702 8.538567
v 17.195618 14.802171 9.454484
v 16.719725 11.852698 27.397802
v -8.678904 0.104434 48.872299
v -17.238798 0.104434 48.824272
v 8.341404 16.008957 48.651051
v 17.264696 11.852703 -17.474560
v 14.203346 21.856377 -6.210581
v 14.174526 21.856375 13.545300
v -8.436316 0.104441 -8.973434
v -16.996214 0.104441 5.598806
v -17.011633 11.852702 8.346561
v -17.016775 15.065866 9.262481
v 7.126055 21.856375 13.505743
v 7.154877 21.856377 -6.250138
v -8.387798 14.267859 -17.618521
v -14.012968 21.856377 -6.368934
v -6.953280 21.856377 -6.329314
v -14.090071 21.856373 21.989746
v -14.041789 21.856375 13.386948
v 14.126246 21.856373 22.148098
v 7.077776 21.856373 22.108543
v 17.264696 0.104443 -17.474562
v 17.264696 7.936617 -17.474560
v 17.205900 7.936615 7.622648
v 17.216177 0.104441 5.790810
v -17.343353 7.936613 22.885168
v -17.006495 7.936615 7.430643
v -16.947697 7.936617 -17.666563
v 17.361731 0.104446 -34.764748
v 17.427179 7.936622 -46.426540
v 17.167660 0.104440 14.435902
v 16.869036 7.936613 23.077173
v 17.054825 7.936611 34.542099
v 17.068821 0.104437 32.047478
v -17.238798 7.936608 48.824272
v -17.157570 7.936611 34.350098
v 8.880877 0.104448 -46.474510
v 8.880877 7.936622 -46.474510
v -16.785215 7.936622 -46.618546
v -8.678902 7.936608 48.872299
v 16.973593 7.936608 49.016273
v 16.973593 0.104434 49.016273
v 8.427293 7.936608 48.968307
v 8.395823 11.852695 48.544491
v -0.150476 11.852695 48.496525
v -0.119005 7.936608 48.920341
v -8.225318 7.936622 -46.570511
v -8.225318 14.196387 -46.570507
v 0.334580 11.852708 -46.522465
v 0.334580 7.936622 -46.522469
v 8.427293 0.104434 48.968307
v -0.119005 3.552014 48.920341
v 0.334580 3.552027 -46.522469
v 8.621361 0.104440 25.731148
v 0.075064 3.552019 -0.280303
v 0.123581 3.552020 -8.925396
v 8.669878 0.104441 -8.877433
v -7.030383 21.856373 22.029366
v 0.029304 21.856373 22.068985
v 0.077584 21.856375 13.466187
v -6.982102 21.856375 13.426567
v -9.082084 15.768785 31.574476
v -0.522186 15.768785 31.622515
v 0.172098 15.486484 -17.570482
v 0.106406 21.856377 -6.289694
v 0.172098 3.552022 -17.570484
v 8.718396 3.552022 -17.522522
v -0.204895 16.008957 48.603092
v -0.051775 16.008963 36.940796
v -8.611672 16.008963 36.892757
v -0.023775 3.552016 5.988068
v 8.522524 3.552016 31.999519
v 0.334580 15.486488 -46.522465
v -8.225318 14.267863 -46.570507
v 17.230156 14.458205 -4.010038
v 14.188936 21.856377 5.561491
v -8.412058 1.828232 -13.295979
v -16.971954 0.104442 -6.033879
v -16.979664 11.852702 -4.660001
v -16.982235 14.590053 -4.202041
v 7.140466 21.856377 5.521934
v -14.027378 21.856377 5.403138
v 17.232729 11.852702 -4.467997
v 17.240437 0.104442 -5.841876
v 17.235298 7.936616 -4.925956
v -16.977097 7.936616 -5.117960
v -6.967691 21.856377 5.442758
v 0.091995 21.856377 5.482378
v 8.694138 1.828232 -13.199978
v 0.147840 3.552021 -13.247939
v 14.188936 25.749855 5.561491
v 14.174526 25.749853 13.545300
v 7.126055 25.749853 13.505743
v -14.027378 25.749855 5.403139
v -14.041789 25.749853 13.386948
v 0.077584 25.749853 13.466187
v -6.982102 25.749853 13.426567
v -6.967691 25.749855 5.442759
v 7.140466 25.749855 5.521935
v 0.091995 25.749855 5.482378
vt 0.240466 0.215530
vt 0.240595 0.226544
vt 0.266337 0.226633
vt 0.266207 0.215619
vt 0.692962 0.457817
vt 0.708609 0.457817
vt 0.708609 0.442023
vt 0.692962 0.442023
vt 0.268433 0.213380
vt 0.268799 0.224546
vt 0.242404 0.224609
vt 0.242425 0.214690
vt 0.729189 0.442464
vt 0.729104 0.451648
vt 0.710044 0.451629
vt 0.710130 0.442445
vt 0.223637 0.794469
vt 0.224082 0.798566
vt 0.197276 0.798905
vt 0.196832 0.794807
vt 0.689141 0.470373
vt 0.689158 0.464658
vt 0.730126 0.464779
vt 0.730109 0.470495
vt 0.709030 0.458150
vt 0.708939 0.442018
vt 0.729957 0.441366
vt 0.730048 0.457498
vt 0.277748 0.793785
vt 0.278192 0.797882
vt 0.250887 0.798227
vt 0.250443 0.794130
vt 0.084948 0.247736
vt 0.085202 0.259173
vt 0.052560 0.259358
vt 0.052306 0.247921
vt 0.277074 0.308346
vt 0.277066 0.321460
vt 0.263064 0.321451
vt 0.263071 0.308337
vt 0.272220 0.214356
vt 0.272474 0.224314
vt 0.241023 0.224468
vt 0.240769 0.214510
vt 0.304055 0.793452
vt 0.304499 0.797550
vt 0.692440 0.458778
vt 0.692349 0.442646
vt 0.058104 0.249274
vt 0.058233 0.258923
vt 0.084950 0.259004
vt 0.084821 0.249355
vt 0.238408 0.215306
vt 0.238414 0.227180
vt 0.268881 0.225658
vt 0.268874 0.213450
vt 0.786642 0.426138
vt 0.768533 0.426052
vt 0.780251 0.412070
vt 0.799064 0.412156
vt 0.230338 0.794384
vt 0.230783 0.798481
vt 0.271029 0.307629
vt 0.271457 0.319758
vt 0.262413 0.319637
vt 0.261985 0.307642
vt 0.262528 0.310492
vt 0.262738 0.293036
vt 0.280359 0.293153
vt 0.280148 0.310610
vt 0.788398 0.411047
vt 0.777717 0.410970
vt 0.777717 0.429426
vt 0.788398 0.429425
vt 0.794111 0.309336
vt 0.793909 0.320179
vt 0.803437 0.319805
vt 0.803640 0.316653
vt 0.817031 0.317475
vt 0.827695 0.317475
vt 0.827695 0.304249
vt 0.817031 0.304249
vt 0.803479 0.412285
vt 0.829914 0.412828
vt 0.834262 0.426810
vt 0.816395 0.426691
vt 0.279094 0.310140
vt 0.278902 0.292684
vt 0.256457 0.292918
vt 0.256650 0.310375
vt 0.264788 0.309101
vt 0.264393 0.321634
vt 0.277872 0.321392
vt 0.278267 0.309128
vt 0.237484 0.798396
vt 0.237040 0.794299
vt 0.803103 0.320331
vt 0.803703 0.310750
vt 0.794666 0.311104
vt 0.793479 0.320708
vt 0.271829 0.307664
vt 0.271836 0.320778
vt 0.281164 0.320774
vt 0.281157 0.307660
vt 0.266884 0.199768
vt 0.266899 0.225996
vt 0.276227 0.225992
vt 0.276212 0.199764
vt 0.263629 0.196910
vt 0.262840 0.221977
vt 0.276319 0.222273
vt 0.277108 0.197745
vt 0.264825 0.198476
vt 0.265680 0.222735
vt 0.256635 0.222883
vt 0.255780 0.198893
vt 0.212069 0.189537
vt 0.196704 0.217568
vt 0.241767 0.217519
vt 0.241752 0.193103
vt 0.258270 0.197346
vt 0.258529 0.222646
vt 0.275557 0.222752
vt 0.275298 0.197452
vt 0.227287 0.190492
vt 0.227795 0.213366
vt 0.196345 0.213543
vt 0.195836 0.190670
vt 0.279251 0.199450
vt 0.279237 0.225678
vt 0.265234 0.225669
vt 0.265249 0.199441
vt 0.277214 0.196046
vt 0.277723 0.219896
vt 0.253869 0.220080
vt 0.253361 0.196230
vt 0.789570 0.262113
vt 0.789399 0.280481
vt 0.770340 0.280462
vt 0.770510 0.262094
vt 0.239976 0.192285
vt 0.240831 0.214616
vt 0.196903 0.214848
vt 0.211428 0.190361
vt 0.252232 0.207345
vt 0.252564 0.223626
vt 0.243854 0.223785
vt 0.243521 0.207503
vt 0.195908 0.188201
vt 0.196167 0.213501
vt 0.229598 0.213604
vt 0.229340 0.188303
vt 0.271821 0.294549
vt 0.281149 0.294545
vt 0.265183 0.296568
vt 0.278662 0.296864
vt 0.270601 0.295499
vt 0.261557 0.295647
vt 0.235171 0.203432
vt 0.272095 0.201242
vt 0.057975 0.239626
vt 0.084692 0.239707
vt 0.271965 0.204399
vt 0.240515 0.204553
vt 0.277081 0.297750
vt 0.277074 0.310865
vt 0.263071 0.310856
vt 0.263077 0.297741
vt 0.084694 0.236299
vt 0.052051 0.236484
vt 0.765371 0.392870
vt 0.765286 0.406317
vt 0.746227 0.406298
vt 0.746312 0.392851
vt 0.271159 0.202214
vt 0.238857 0.204771
vt 0.657746 0.447929
vt 0.666377 0.447929
vt 0.666377 0.439217
vt 0.657746 0.439217
vt 0.240337 0.204516
vt 0.266078 0.204606
vt 0.677315 0.489380
vt 0.692962 0.489380
vt 0.692962 0.473611
vt 0.677315 0.473611
vt 0.823154 0.388429
vt 0.823068 0.397613
vt 0.799097 0.397594
vt 0.799182 0.388410
vt 0.269638 0.207029
vt 0.269971 0.223310
vt 0.261275 0.223468
vt 0.260942 0.207187
vt 0.823324 0.370061
vt 0.799352 0.370042
vt 0.249556 0.785942
vt 0.249999 0.790033
vt 0.236596 0.790202
vt 0.236153 0.786111
vt 0.279479 0.345080
vt 0.279287 0.327597
vt 0.256842 0.327832
vt 0.257035 0.345315
vt 0.795686 0.317475
vt 0.806367 0.317475
vt 0.806367 0.304249
vt 0.795686 0.304249
vt 0.809743 0.411200
vt 0.799079 0.411124
vt 0.799079 0.429426
vt 0.809743 0.429425
vt 0.262106 0.345433
vt 0.262317 0.327949
vt 0.279937 0.328066
vt 0.279726 0.345550
vt 0.229451 0.786196
vt 0.229895 0.790287
vt 0.223193 0.790371
vt 0.222750 0.786281
vt 0.692622 0.491067
vt 0.692531 0.474910
vt 0.709121 0.474282
vt 0.709212 0.490439
vt 0.303168 0.785264
vt 0.303611 0.789355
vt 0.277303 0.789688
vt 0.276860 0.785597
vt 0.730139 0.473630
vt 0.730231 0.489787
vt 0.689107 0.481813
vt 0.689124 0.476089
vt 0.730092 0.476210
vt 0.730075 0.481934
vt 0.196388 0.790710
vt 0.195944 0.786619
vt 0.822983 0.406797
vt 0.799011 0.406778
vt 0.708609 0.489380
vt 0.708609 0.473611
vt 0.692962 0.505149
vt 0.708609 0.505149
vt 0.222307 0.782190
vt 0.195501 0.782529
vt 0.276417 0.781506
vt 0.249113 0.781851
vt 0.302724 0.781174
vt 0.229008 0.782105
vt 0.820408 0.411277
vt 0.820408 0.429426
vt 0.235710 0.782020
vt 0.278335 0.206870
vt 0.278667 0.223152
vt 0.658327 0.506203
vt 0.666958 0.506203
vt 0.666958 0.497505
vt 0.658327 0.497505
vt 0.774177 0.397575
vt 0.774262 0.388391
vt 0.774433 0.370023
vt 0.774092 0.406759
vt 0.729830 0.497273
vt 0.729745 0.506457
vt 0.710654 0.506438
vt 0.710739 0.497254
vt 0.689090 0.487537
vt 0.730058 0.487658
vt 0.709303 0.506597
vt 0.730322 0.505945
vt 0.692713 0.507225
vt 0.261895 0.362917
vt 0.279515 0.363035
vt 0.785004 0.317475
vt 0.785004 0.304249
vt 0.279672 0.362565
vt 0.257228 0.362800
vt 0.846809 0.262170
vt 0.846638 0.280538
vt 0.827549 0.280519
vt 0.827719 0.262151
vt 0.850944 0.391581
vt 0.851167 0.405379
vt 0.832077 0.405360
vt 0.831855 0.391562
vt 0.677315 0.457817
vt 0.246974 0.315236
vt 0.246781 0.301104
vt 0.246781 0.301104
vt 0.246974 0.315236
vt 0.251852 0.301199
vt 0.251641 0.315331
vt 0.251641 0.315331
vt 0.251852 0.301199
vt 0.211676 0.261363
vt 0.196037 0.261277
vt 0.196037 0.261277
vt 0.211676 0.261363
vt 0.279646 0.295351
vt 0.280074 0.307615
vt 0.262493 0.294554
vt 0.262501 0.307669
vt 0.273869 0.198059
vt 0.274724 0.222587
vt 0.257556 0.199773
vt 0.257571 0.226001
vt 0.262508 0.320783
vt 0.777044 0.411742
vt 0.798528 0.426571
vt 0.256842 0.327832
vt 0.257035 0.345315
vt 0.280501 0.319879
vt 0.804752 0.426224
vt 0.817878 0.412242
vt 0.242500 0.354977
vt 0.242664 0.340491
vt 0.254333 0.340582
vt 0.254169 0.355068
vt 0.240828 0.327857
vt 0.240992 0.317032
vt 0.254660 0.317113
vt 0.254497 0.327938
vt 0.240664 0.339922
vt 0.254333 0.340003
vt 0.224726 0.272066
vt 0.224890 0.251933
vt 0.243197 0.252024
vt 0.243034 0.272157
vt 0.242674 0.305627
vt 0.251914 0.305746
vt 0.251914 0.305746
vt 0.242674 0.305627
vt 0.262106 0.345433
vt 0.262317 0.327949
vt 0.239301 0.253973
vt 0.239090 0.271430
vt 0.239090 0.271430
vt 0.239301 0.253973
vt 0.262528 0.310492
vt 0.233212 0.271312
vt 0.233020 0.253856
vt 0.233020 0.253856
vt 0.233212 0.271312
vt 0.256650 0.310375
vn 1.0000 0.0049 0.0083
vn 0.9999 0.0060 0.0106
vn 0.9999 0.0051 0.0087
vn -0.0052 -0.0265 0.9996
vn -1.0000 -0.0001 -0.0040
vn -1.0000 -0.0000 -0.0056
vn 0.0000 0.0000 0.0000
vn 0.0123 0.9999 -0.0047
vn 0.2435 -0.9671 0.0735
vn 0.0180 0.9998 0.0001
vn 0.0204 0.9992 -0.0343
vn 0.3334 -0.9371 0.1031
vn 0.3468 -0.9333 0.0933
vn 0.3002 -0.9454 0.1270
vn -0.9964 -0.0611 0.0580
vn 0.9996 0.0019 0.0266
vn 0.9996 0.0020 0.0268
vn 0.9997 0.0036 0.0244
vn -0.9999 -0.0051 -0.0087
vn -0.9999 -0.0060 -0.0106
vn -1.0000 -0.0049 -0.0083
vn 0.1541 -0.9864 -0.0575
vn 0.1399 -0.9877 -0.0696
vn 0.1636 -0.9853 -0.0494
vn 0.0281 0.9996 0.0004
vn 0.9963 0.0623 -0.0585
vn 1.0000 0.0000 0.0056
vn 1.0000 0.0001 0.0040
vn 0.9248 0.3805 -0.0035
vn 0.9259 0.3778 -0.0034
vn 0.9219 0.3874 -0.0040
vn 0.1845 -0.9716 -0.1482
vn 0.0426 -0.9933 -0.1072
vn 0.2475 -0.9634 -0.1033
vn 0.1706 -0.9736 -0.1514
vn -1.0000 -0.0004 -0.0025
vn -1.0000 -0.0005 -0.0025
vn 0.0040 0.7071 -0.7071
vn 0.5804 0.5755 -0.5761
vn 0.0000 1.0000 0.0000
vn -0.0050 0.8278 -0.5609
vn -0.8966 0.4419 -0.0296
vn -0.0000 0.8425 0.5386
vn 0.0027 0.8418 0.5398
vn -0.0003 0.8426 0.5385
vn -0.9247 0.3805 -0.0093
vn -0.9175 0.3977 -0.0109
vn -0.9195 0.3930 -0.0105
vn 0.5748 0.5781 0.5791
vn -0.0040 0.7071 0.7071
vn -0.9997 -0.0035 -0.0244
vn -0.9996 -0.0019 -0.0269
vn -0.9996 -0.0019 -0.0266
vn -0.0000 -1.0000 -0.0000
vn 0.9230 0.3847 0.0094
vn 1.0000 0.0004 0.0025
vn 1.0000 0.0006 0.0025
vn 1.0000 0.0008 0.0025
vn 1.0000 0.0007 0.0025
vn 1.0000 0.0049 0.0075
vn 1.0000 -0.0031 0.0047
vn 0.9998 -0.0012 0.0178
vn 0.9999 0.0087 0.0134
vn -0.9998 -0.0090 -0.0160
vn -0.9998 -0.0080 -0.0176
vn -0.9997 -0.0041 -0.0232
vn -1.0000 -0.0004 -0.0022
vn -1.0000 -0.0004 -0.0023
vn -1.0000 -0.0001 -0.0039
vn 1.0000 0.0001 0.0039
vn 0.9998 0.0221 -0.0030
vn -1.0000 -0.0020 -0.0062
vn -1.0000 -0.0017 -0.0061
vn 0.9998 0.0080 0.0176
vn 0.9998 0.0090 0.0160
vn -0.9998 -0.0221 0.0030
vn 0.4840 -0.5239 -0.7009
vn -0.0056 0.0000 1.0000
vn 1.0000 0.0017 0.0061
vn 1.0000 0.0020 0.0062
vn 0.9989 0.0383 -0.0259
vn -0.9989 -0.0383 0.0259
vn 0.0056 0.0000 -1.0000
vn -0.0056 0.1075 0.9942
vn -0.0056 0.1076 0.9942
vn -0.3730 -0.9278 -0.0008
vn -0.0030 0.8434 0.5373
vn 0.0694 0.8505 -0.5214
vn -0.1828 -0.9717 -0.1498
vn -0.1912 -0.9624 -0.1930
vn -0.0973 -0.9759 -0.1951
vn -0.1689 -0.9737 -0.1527
vn -0.1555 -0.9846 -0.0794
vn -0.1125 -0.9920 -0.0575
vn -0.1420 -0.9872 -0.0725
vn -0.2959 -0.9416 0.1607
vn -0.6923 -0.6985 0.1812
vn -0.4273 -0.8878 0.1709
vn 0.0003 0.9990 -0.0451
vn -0.1409 0.9900 -0.0008
vn -0.1977 -0.9786 0.0572
vn -0.0056 -0.0257 0.9997
vn -0.0060 -0.0265 0.9996
vn -0.2446 -0.9670 0.0707
vn -0.1056 -0.9843 0.1412
vn -0.1962 -0.9754 -0.1002
vn -0.0412 -0.9934 -0.1074
vn -0.2461 -0.9636 -0.1049
vn 0.0113 0.8278 -0.5608
vn 0.1412 0.9900 0.0008
vn -0.0084 1.0000 0.0009
vn -0.0179 0.9998 -0.0001
vn -0.0139 0.9997 -0.0213
vn -0.0280 0.9996 -0.0004
vn -0.5743 0.5792 -0.5786
vn -0.5799 0.5766 0.5756
vn -0.4755 -0.5240 -0.7066
vn 0.3736 -0.9276 0.0021
vn -0.0634 0.8505 -0.5221
vn 0.1931 -0.9624 -0.1908
vn 0.0994 -0.9759 -0.1940
vn 0.1686 -0.9846 -0.0451
vn 0.2827 -0.9490 0.1394
vn 0.1967 -0.9787 0.0594
vn 0.2851 -0.9403 -0.1859
vn 0.0812 -0.9871 -0.1378
vn -0.5794 0.5776 0.5751
vn -0.5753 0.5772 -0.5796
vn 0.0380 -0.9935 -0.1072
vn -0.0802 -0.9871 -0.1389
vn -0.2834 -0.9402 -0.1891
vn 0.5794 0.5776 -0.5751
vn 0.5753 0.5772 0.5796
vn -1.0000 -0.0006 -0.0023
vn -1.0000 -0.0007 -0.0025
vn -1.0000 -0.0006 -0.0022
vn -0.9266 0.3760 -0.0089
vn -0.0370 -0.9935 -0.1075
vn 0.9207 0.3902 -0.0042
usemtl Material.002
s 1
f 1/1/1 2/2/2 3/3/2 4/4/3
f 5/5/4 6/6/4 7/7/4 8/8/4
f 9/9/5 10/10/5 11/11/6 12/12/6
f 13/13/7 14/14/7 15/15/8 16/16/8
f 17/17/9 18/18/9 19/19/9 20/20/9
f 21/21/10 22/22/10 15/23/10 14/24/10
f 23/25/11 2/26/11 24/27/11 25/28/11
f 26/29/12 27/30/13 28/31/13 29/32/14
f 30/33/15 31/34/15 32/35/15 33/36/15
f 34/37/16 35/38/17 24/39/17 36/40/18
f 8/41/19 7/42/20 31/43/20 30/44/21
f 37/45/22 38/46/23 27/30/23 26/29/24
f 39/47/25 3/48/25 2/26/25 23/25/25
f 36/49/26 24/50/26 2/51/26 1/52/26
f 16/53/27 15/54/27 22/55/28 40/56/28
f 109/57/29 22/58/30 41/59/30 110/60/31
f 111/61/32 112/62/33 18/18/34 17/17/35
f 113/63/36 114/64/37 10/65/5 9/66/5
f 115/67/38 110/68/39 41/69/40 48/70/40
f 49/71/41 10/72/41 50/73/41 51/74/41
f 46/75/42 32/76/42 52/77/42 53/78/42
f 25/79/43 24/80/44 54/81/44 55/82/45
f 114/83/46 46/84/47 53/85/47 116/86/48
f 55/87/40 54/88/40 42/89/49 47/90/50
f 33/91/51 32/92/52 46/93/52 45/94/53
f 29/32/54 28/31/54 44/95/54 43/96/54
f 24/97/55 35/98/55 42/99/55 54/100/55
f 117/101/56 109/102/57 35/103/58 34/104/59
f 118/105/60 119/106/61 58/107/62 59/108/63
f 28/109/64 60/110/65 61/111/66 44/112/64
f 112/113/67 120/114/68 62/115/5 18/116/69
f 63/117/27 64/118/27 57/119/28 56/120/70
f 65/121/71 66/122/71 67/123/71 68/124/71
f 38/125/6 69/126/72 70/127/73 27/128/6
f 59/129/63 58/130/62 66/131/74 65/132/75
f 27/133/76 70/134/76 60/135/76 28/136/76
f 71/137/77 72/138/77 64/139/77 63/140/77
f 18/141/69 62/142/5 73/143/6 19/144/6
f 37/145/78 74/146/78 69/147/78 38/148/78
f 68/149/27 67/150/79 75/151/80 76/152/27
f 119/153/61 117/101/56 34/104/59 58/154/62
f 60/155/65 33/91/51 45/94/53 61/156/66
f 120/157/68 113/63/36 9/66/5 62/158/5
f 64/159/27 16/53/27 40/56/28 57/160/28
f 66/161/81 36/49/81 1/52/81 67/162/81
f 69/163/72 8/41/19 30/44/21 70/164/73
f 58/165/62 34/166/16 36/167/18 66/168/74
f 70/169/82 30/33/82 33/36/82 60/170/82
f 72/171/83 13/172/83 16/173/83 64/174/83
f 62/175/5 9/9/5 12/12/6 73/176/6
f 74/177/84 5/178/84 8/179/85 69/180/85
f 67/181/79 1/1/1 4/4/3 75/182/80
f 77/183/85 78/184/85 79/185/84 80/186/84
f 81/187/83 82/188/83 83/189/83 84/190/83
f 85/191/78 77/192/78 80/193/78 86/194/78
f 20/195/83 81/187/83 84/190/83 87/196/83
f 88/197/86 89/198/86 90/199/86 91/200/86
f 92/201/40 93/202/40 94/203/50 95/204/50
f 96/205/87 97/206/87 93/207/87 92/208/87
f 21/209/88 98/210/88 99/211/88 48/212/88
f 121/213/38 122/214/38 99/215/40 51/216/40
f 123/217/89 124/218/90 100/219/91 101/220/92
f 6/221/40 102/222/40 103/223/40 104/224/40
f 85/225/93 86/226/94 105/227/94 106/228/95
f 106/228/96 105/227/97 89/198/97 88/197/98
f 104/224/99 103/223/99 97/229/99 96/230/99
f 49/231/100 98/232/100 107/233/100 108/234/100
f 101/220/101 100/219/101 87/235/101 71/236/101
f 82/188/83 108/237/83 107/238/83 83/189/83
f 78/184/102 39/239/102 102/240/102 79/185/102
f 4/241/103 3/242/103 39/239/103 78/184/103
f 56/243/104 101/220/104 71/236/104 63/244/104
f 68/245/105 106/228/96 88/197/98 65/246/105
f 76/247/106 85/225/93 106/228/95 68/245/106
f 118/248/107 123/217/89 101/220/92 56/243/108
f 22/249/109 21/209/109 48/212/109 41/250/109
f 65/246/54 88/197/54 91/200/54 59/251/54
f 76/252/78 75/253/78 77/192/78 85/191/78
f 75/254/85 4/255/85 78/256/85 77/257/85
f 84/190/83 83/189/83 13/258/83 72/259/83
f 87/196/83 84/190/83 72/259/83 71/260/83
f 93/202/40 55/87/40 47/90/50 94/203/50
f 97/206/87 25/79/43 55/82/45 93/207/87
f 122/214/38 115/67/38 48/70/40 99/215/40
f 102/222/40 39/47/40 23/25/40 103/223/40
f 103/223/99 23/25/99 25/28/99 97/229/99
f 98/232/110 21/21/110 14/24/110 107/233/110
f 83/189/83 107/238/83 14/261/83 13/258/83
f 12/262/111 11/263/111 108/264/7 82/265/7
f 10/266/112 49/231/112 108/234/112 11/267/112
f 31/268/113 104/224/113 96/230/113 32/269/113
f 7/270/114 6/221/114 104/224/114 31/268/114
f 116/271/115 121/213/38 51/216/40 50/272/40
f 32/273/87 96/205/87 92/208/87 52/274/87
f 52/275/40 92/201/40 95/204/50 53/276/116
f 19/277/117 73/278/117 81/279/117 20/280/117
f 73/281/83 12/282/83 82/283/83 81/284/83
f 80/186/84 79/185/84 5/5/84 74/285/84
f 86/194/78 80/193/78 74/146/78 37/145/78
f 89/198/118 29/32/118 43/96/118 90/199/118
f 98/210/119 49/71/119 51/74/119 99/211/119
f 124/218/120 111/61/32 17/17/35 100/219/121
f 86/226/122 37/45/22 26/29/24 105/227/122
f 105/227/123 26/29/12 29/32/14 89/198/123
f 100/219/124 17/17/124 20/20/124 87/235/124
f 79/185/102 102/240/102 6/6/102 5/5/102
f 90/199/125 43/96/126 111/61/32 124/218/120
f 53/286/116 95/287/50 131/288/50 129/289/127
f 121/290/38 116/291/115 128/292/128 132/293/38
f 59/251/129 91/200/130 123/217/89 118/248/107
f 91/200/130 90/199/131 124/218/90 123/217/89
f 42/294/49 110/295/39 125/296/132 126/297/133
f 61/298/134 45/299/135 113/63/36 120/157/68
f 57/300/28 40/301/28 117/101/56 119/153/61
f 44/302/136 61/303/134 120/114/68 112/113/67
f 56/304/70 57/305/28 119/106/61 118/105/60
f 40/301/28 22/306/28 109/102/57 117/101/56
f 10/307/137 114/83/46 116/86/48 50/308/137
f 95/204/50 94/203/50 130/309/50 131/310/50
f 45/299/135 46/311/135 114/64/37 113/63/36
f 43/96/126 44/95/138 112/62/33 111/61/32
f 35/312/139 109/57/29 110/60/31 42/313/139
f 129/314/127 131/315/50 132/316/38 128/317/128
f 130/318/50 127/319/50 133/320/38 134/321/38
f 131/322/50 130/318/50 134/321/38 132/323/38
f 127/324/50 126/325/133 125/326/132 133/327/38
f 116/328/115 53/329/116 129/330/127 128/331/128
f 122/214/38 121/213/38 132/332/38 134/333/38
f 110/334/39 115/335/38 133/336/38 125/337/132
f 115/67/38 122/214/38 134/333/38 133/338/38
f 47/339/50 42/340/49 126/341/133 127/342/50
f 94/203/50 47/90/50 127/343/50 130/309/50
